<svg xmlns="http://www.w3.org/2000/svg" viewBox="0 0 150 40"><defs><style>.cls-1{fill:#f7941d;}.cls-2,.cls-3{fill:#fff;isolation:isolate;}.cls-3{font-size:27.02px;font-family:AvenirNextCondensed-Regular, Avenir Next Condensed;}.cls-4{letter-spacing:-0.01em;}.cls-5{letter-spacing:0em;}</style></defs><g id="Logo_in_dark" data-name="Logo in dark"><g id="Logo"><path class="cls-1" d="M31.18,19.91,42.33,4a5.19,5.19,0,0,0-8.86-.71L33,4l-6.5,9.25C23.39,8.8,20,3.91,20,3.91l-.47-.68a5.22,5.22,0,0,0-8.89.68L33.08,36l.48.68A5.25,5.25,0,0,0,42.48,36Z"/><path class="cls-2" d="M20.77,21.36c-1.05,1.5-3.22,4.56-4.68,6.66a1.15,1.15,0,0,1-1.88,0L9.1,20.73a1.14,1.14,0,0,1,0-1.32l5.17-7.35L9.56,5.34C-1.53,21.16-.06,21,10.56,36.19c2.25,3.21,6.53,3.88,8.8.63l6.13-8.75Z"/><path class="cls-2" d="M43.49,34.57,38.8,27.85l5-7.13a1.13,1.13,0,0,0,0-1.31l-5.1-7.31,4.69-6.7C54.11,20.77,53.26,20.69,43.49,34.57Z"/></g><text class="cls-3" transform="translate(58.9 25.98)">c<tspan class="cls-4" x="9.08" y="0">x</tspan><tspan class="cls-5" x="19.13" y="0">ospace </tspan></text></g></svg>